<?xml version="1.0" encoding="UTF-8" standalone="no"?>
<svg
   xmlns:dc="http://purl.org/dc/elements/1.1/"
   xmlns:cc="http://creativecommons.org/ns#"
   xmlns:rdf="http://www.w3.org/1999/02/22-rdf-syntax-ns#"
   xmlns:svg="http://www.w3.org/2000/svg"
   xmlns="http://www.w3.org/2000/svg"
   xmlns:sodipodi="http://sodipodi.sourceforge.net/DTD/sodipodi-0.dtd"
   xmlns:inkscape="http://www.inkscape.org/namespaces/inkscape"
   version="1.0"
   x="0px"
   y="0px"
   width="16"
   height="16"
   viewBox="5 -10 16 21.6"
   overflow=""
   enable-background="new 0 0 100 100"
   xml:space="preserve"
   id="svg2"
   inkscape:version="0.48.5 r10040"
   sodipodi:docname="icon_temperatur Kopie.svg"><metadata
     id="metadata14"><rdf:RDF><cc:Work
         rdf:about=""><dc:format>image/svg+xml</dc:format><dc:type
           rdf:resource="http://purl.org/dc/dcmitype/StillImage" /><dc:title></dc:title></cc:Work></rdf:RDF></metadata><defs
     id="defs12" /><sodipodi:namedview
     pagecolor="#ffffff"
     bordercolor="#666666"
     borderopacity="1"
     objecttolerance="10"
     gridtolerance="10"
     guidetolerance="10"
     inkscape:pageopacity="0"
     inkscape:pageshadow="2"
     inkscape:window-width="1248"
     inkscape:window-height="858"
     id="namedview10"
     showgrid="false"
     inkscape:zoom="11.624827"
     inkscape:cx="12.149976"
     inkscape:cy="5.2681529"
     inkscape:window-x="0"
     inkscape:window-y="0"
     inkscape:window-maximized="0"
     inkscape:current-layer="svg2" /><path
     d="m 16.048085,2.1417492 v -8.7312419 c 0,-1.8546618 -1.503995,-3.3582485 -3.358862,-3.3582485 -1.854663,0 -3.3580438,1.5035867 -3.3580438,3.3582485 V 2.153827 c -0.827024,0.8474942 -1.337363,2.0051227 -1.337363,3.2825064 0,2.5965267 2.1050208,4.7015476 4.7015478,4.7015476 2.596118,0 4.700935,-2.1050209 4.700935,-4.7015476 0,-1.2827058 -0.514639,-2.4452476 -1.348214,-3.2945842 z m -1.336748,-8.1320589 h -2.704204 v 1.3379771 h 1.357219 v 1.3385906 h -1.357219 v 1.3742109 h 1.357219 v 1.33838645 h -1.357219 v 1.33060742 h 1.357219 V 2.0674399 H 12.007133 V 3.5450284 C 11.234357,3.8260937 10.682462,4.5671392 10.682462,5.436538 H 9.3260611 c 0,-1.1046093 0.5318341,-2.0843455 1.3531259,-2.6990861 v -9.3283774 c 0,-0.00778 8.1e-4,-0.015356 8.1e-4,-0.022727 l -8.1e-4,-0.00146 c 0,-1.1130015 0.90297,-2.015563 2.016177,-2.015563 1.113206,0 2.015973,0.9025615 2.015973,2.015563 v 0.6247718 z"
     id="path4"
     inkscape:connector-curvature="0" /></svg>