<?xml version="1.0" encoding="UTF-8" standalone="no"?>
<svg
   xmlns:dc="http://purl.org/dc/elements/1.1/"
   xmlns:cc="http://creativecommons.org/ns#"
   xmlns:rdf="http://www.w3.org/1999/02/22-rdf-syntax-ns#"
   xmlns:svg="http://www.w3.org/2000/svg"
   xmlns="http://www.w3.org/2000/svg"
   xmlns:sodipodi="http://sodipodi.sourceforge.net/DTD/sodipodi-0.dtd"
   xmlns:inkscape="http://www.inkscape.org/namespaces/inkscape"
   version="1.1"
   id="Layer_1"
   x="0px"
   y="0px"
   width="16"
   height="16"
   viewBox="5 -10 16 21.6"
   enable-background="new 0 0 100 100"
   xml:space="preserve"
   inkscape:version="0.48.5 r10040"
   sodipodi:docname="icon_konfiguration.svg"><metadata
     id="metadata13"><rdf:RDF><cc:Work
         rdf:about=""><dc:format>image/svg+xml</dc:format><dc:type
           rdf:resource="http://purl.org/dc/dcmitype/StillImage" /><dc:title></dc:title></cc:Work></rdf:RDF></metadata><defs
     id="defs11" /><sodipodi:namedview
     pagecolor="#ffffff"
     bordercolor="#666666"
     borderopacity="1"
     objecttolerance="10"
     gridtolerance="10"
     guidetolerance="10"
     inkscape:pageopacity="0"
     inkscape:pageshadow="2"
     inkscape:window-width="1101"
     inkscape:window-height="720"
     id="namedview9"
     showgrid="false"
     inkscape:zoom="19.685853"
     inkscape:cx="5.9668364"
     inkscape:cy="9.3538823"
     inkscape:window-x="0"
     inkscape:window-y="0"
     inkscape:window-maximized="0"
     inkscape:current-layer="Layer_1" /><path
     d="m 22.626799,-1.1612028 c -0.06083,-0.4440577 -0.40395,-0.8078985 -0.848228,-0.8680612 -0.54543,-0.060162 -1.655905,-0.2023052 -1.655905,-0.2023052 -0.484607,-0.1205457 -0.848448,-0.5452103 -0.848448,-1.0697053 0,-0.201644 0.0606,-0.4039492 0.182251,-0.5652645 0,-0.020055 1.009542,-1.3323935 1.009542,-1.3323935 0.282302,-0.3429051 0.261807,-0.848007 -0.02027,-1.1911325 -0.383675,-0.4848272 -0.828173,-0.9291053 -1.313221,-1.3130004 -0.342905,-0.2827424 -0.848007,-0.3027967 -1.190692,-0.020055 -0.444498,0.3431255 -1.312339,1.0102038 -1.312339,1.0102038 -0.18159,0.1004915 -0.383675,0.1809287 -0.605593,0.1809287 -0.525157,0 -0.94938,-0.3832339 -1.050533,-0.8883358 l -0.201424,-1.6151357 c -0.06038,-0.4442782 -0.424444,-0.7871835 -0.868282,-0.8475667 -0.625427,-0.06082 -1.251515,-0.06082 -1.857108,0 -0.444279,0.060165 -0.807899,0.4032885 -0.868282,0.8475667 l -0.201643,1.6151357 c -0.0811,0.5051019 -0.525157,0.8883358 -1.0503129,0.8883358 -0.2417525,0 -0.4641118,-0.080437 -0.6457017,-0.2016441 L 8.0085989,-7.7231201 C 7.6654734,-8.0058625 7.1603715,-7.9855879 6.8174664,-7.7030654 6.3324188,-7.3191703 5.888361,-6.8751127 5.504466,-6.390065 c -0.3027968,0.3431255 -0.3027968,0.8482274 -0.020054,1.1911325 0.3235121,0.4240035 0.9692138,1.2720105 0.9692138,1.2720105 0.1412611,0.1815899 0.2223595,0.4039493 0.2223595,0.6256475 0,0.5454307 -0.4039494,0.9894885 -0.9291055,1.0697053 l -1.574807,0.2023052 c -0.444278,0.060383 -0.8072374,0.4240035 -0.8480069,0.8680612 -0.060383,0.62564826 -0.060383,1.25217732 0,1.85777076 C 3.3848893,1.140846 3.7280151,1.5044665 4.1720728,1.5646292 L 5.74688,1.7662732 c 0.5251561,0.060823 0.9291055,0.5051019 0.9291055,1.0505326 0,0.2419729 -0.081098,0.4641119 -0.2223595,0.6457018 L 5.4844082,4.7345181 C 5.2016657,5.0783047 5.2217199,5.5827454 5.5044632,5.9256505 5.8881379,6.4102574 6.332416,6.8547559 6.8174637,7.2384306 6.9990535,7.3801324 7.2006976,7.4603492 7.423057,7.4603492 c 0.2016441,0 0.4240035,-0.060383 0.5855391,-0.201644 L 9.2806059,6.2692168 C 9.4621958,6.14801 9.6845551,6.0669116 9.9263076,6.0669116 c 0.5251564,0 0.9692144,0.383895 1.0503124,0.8889969 0,0.020054 0.201643,1.6151363 0.201643,1.6151363 0.06038,0.4442782 0.424004,0.7867424 0.868282,0.8480068 0.302797,0.020279 0.625648,0.04055 0.929106,0.04055 0.302796,0 0.625427,-0.020279 0.928003,-0.04055 0.444498,-0.060602 0.807898,-0.4037286 0.868282,-0.8480068 l 0.201423,-1.6151363 c 0.101153,-0.5051019 0.525377,-0.8889969 1.050533,-0.8889969 0.221919,0 0.444498,0.061044 0.605593,0.1822509 l 1.312339,1.0095427 c 0.161096,0.141261 0.383675,0.201644 0.585099,0.201644 0.2228,0 0.424444,-0.060383 0.605593,-0.2219186 0.485048,-0.3836747 0.929547,-0.8279527 1.313221,-1.3127801 0.281861,-0.3431254 0.302576,-0.8475662 0.02027,-1.1911324 C 20.122005,4.29024 19.456469,3.4223991 19.456469,3.4021245 19.334821,3.2408093 19.274218,3.0385041 19.274218,2.8168058 c 0,-0.5048815 0.36362,-0.94938 0.848448,-1.0505326 0,0 1.110475,-0.1414814 1.655905,-0.201644 0.444278,-0.060162 0.787184,-0.4242239 0.848228,-0.86806124 0.05994,-0.62630873 0.05994,-1.25217671 0,-1.85777076 z m -9.650928,4.2193204 c -1.817441,0 -3.2910954,-1.473875 -3.2910954,-3.29109586 0,-1.81678074 1.4738744,-3.29065554 3.2910954,-3.29065554 1.816559,0 3.290434,1.4738748 3.290434,3.29065554 0,1.81766156 -1.473875,3.29109586 -3.290434,3.29109586 z"
     id="path3"
     inkscape:connector-curvature="0"
     style="fill:#ffffff" /></svg>