<?xml version="1.0" encoding="UTF-8" standalone="no"?>
<!-- Generator: Adobe Illustrator 15.1.0, SVG Export Plug-In . SVG Version: 6.00 Build 0)  -->

<svg
   xmlns:dc="http://purl.org/dc/elements/1.1/"
   xmlns:cc="http://creativecommons.org/ns#"
   xmlns:rdf="http://www.w3.org/1999/02/22-rdf-syntax-ns#"
   xmlns:svg="http://www.w3.org/2000/svg"
   xmlns="http://www.w3.org/2000/svg"
   xmlns:sodipodi="http://sodipodi.sourceforge.net/DTD/sodipodi-0.dtd"
   xmlns:inkscape="http://www.inkscape.org/namespaces/inkscape"
   version="1.1"
   id="Layer_1"
   x="0px"
   y="0px"
   width="16"
   height="16"
   viewBox="0 0 16 16"
   enable-background="new 0 0 100 86.428"
   xml:space="preserve"
   inkscape:version="0.48.5 r10040"
   sodipodi:docname="icon_gewicht.svg"><metadata
     id="metadata9"><rdf:RDF><cc:Work
         rdf:about=""><dc:format>image/svg+xml</dc:format><dc:type
           rdf:resource="http://purl.org/dc/dcmitype/StillImage" /><dc:title></dc:title></cc:Work></rdf:RDF></metadata><defs
     id="defs7" /><sodipodi:namedview
     pagecolor="#ffffff"
     bordercolor="#666666"
     borderopacity="1"
     objecttolerance="10"
     gridtolerance="10"
     guidetolerance="10"
     inkscape:pageopacity="0"
     inkscape:pageshadow="2"
     inkscape:window-width="946"
     inkscape:window-height="674"
     id="namedview5"
     showgrid="false"
     inkscape:zoom="9.5064122"
     inkscape:cx="16.33851"
     inkscape:cy="9.5525104"
     inkscape:window-x="200"
     inkscape:window-y="109"
     inkscape:window-maximized="0"
     inkscape:current-layer="Layer_1" /><g
     id="g2986"
     transform="matrix(0.15874513,0,0,0.15874513,0,11.236766)"
     style="fill:#ffffff"><path
       style="fill:#ffffff"
       inkscape:connector-curvature="0"
       d="m 0,15.999999 h 40.344 v -41.666 l -13.889,-2.314 v -5.276 c 4.323,-1.438 7.275,-4.311 7.275,-7.62 0,-4.748 -6.072,-8.6 -13.558,-8.6 -7.487,0 -13.558,3.852 -13.558,8.6 0,3.311 2.951,6.183 7.275,7.62 v 5.353 L 0,-25.666001 v 41.666 l 0,0 z"
       id="path2950" /><path
       style="fill:#ffffff"
       inkscape:connector-curvature="0"
       d="M 46.746,15.999999 H 100 v -55 l -18.334,-3.055 v -6.967 c 5.709,-1.896 9.604,-5.688 9.604,-10.058 0,-6.266 -8.014,-11.348 -17.896,-11.348 -9.881,0 -17.896,5.082 -17.896,11.349 0,4.368 3.896,8.162 9.604,10.058 v 7.064 l -18.333,2.957 v 54.999 l -0.003,0.001 0,0 z"
       id="path2932" /></g></svg>