<?xml version="1.0" encoding="UTF-8" standalone="no"?>
<!-- Created with Inkscape (http://www.inkscape.org/) -->

<svg
   xmlns:dc="http://purl.org/dc/elements/1.1/"
   xmlns:cc="http://creativecommons.org/ns#"
   xmlns:rdf="http://www.w3.org/1999/02/22-rdf-syntax-ns#"
   xmlns:svg="http://www.w3.org/2000/svg"
   xmlns="http://www.w3.org/2000/svg"
   xmlns:sodipodi="http://sodipodi.sourceforge.net/DTD/sodipodi-0.dtd"
   xmlns:inkscape="http://www.inkscape.org/namespaces/inkscape"
   id="svg2848"
   sodipodi:docname="bee.svg"
   viewBox="0 0 200 200"
   version="1.1"
   inkscape:version="0.48.5 r10040"
   width="100%"
   height="100%">
  <defs
     id="defs36" />
  <title
     id="title6052">Projet logo jvne</title>
  <sodipodi:namedview
     id="base"
     bordercolor="#666666"
     inkscape:pageshadow="2"
     inkscape:window-y="0"
     pagecolor="#ffffff"
     inkscape:window-height="799"
     inkscape:window-maximized="0"
     inkscape:zoom="0.37751929"
     inkscape:window-x="148"
     showgrid="false"
     borderopacity="1.0"
     inkscape:current-layer="layer1"
     inkscape:cx="-195.46686"
     inkscape:cy="165.2563"
     inkscape:window-width="827"
     inkscape:pageopacity="0.0"
     inkscape:document-units="px" />
  <g
     id="layer1"
     inkscape:label="Calque 1"
     inkscape:groupmode="layer"
     transform="translate(-1735.9,139.11)">
    <g
       transform="matrix(0.87324288,0,0,0.87324288,1281.836,-219.20064)"
       id="g15604">
      <path
         inkscape:connector-curvature="0"
         d="m 628.01,215.7 c -3.84,-26.07 -38.66,-124.21 25.04,-117.86 58.495,8.828 10.058,95.541 -25.037,117.86 z"
         style="fill:#ffffff;stroke:#000000;stroke-width:1.72749996px"
         sodipodi:nodetypes="ccc"
         id="path15606" />
      <path
         inkscape:connector-curvature="0"
         d="m 644.58,223.06 c -6.1031,-42.361 38.267,-129 88.622,-87.33 46.841,41.658 -31.848,102.47 -88.622,87.33 z"
         style="fill:#ffffff;stroke:#000000;stroke-width:1.87049997px"
         sodipodi:nodetypes="ccc"
         id="path15608" />
      <path
         sodipodi:cx="296.6774"
         sodipodi:cy="-56.945683"
         transform="translate(352.75,314.77)"
         d="m 352.01619,-56.945683 c 0,30.562771 -24.77602,55.3387914 -55.33879,55.3387914 -30.56277,0 -55.33879,-24.7760204 -55.33879,-55.3387914 0,-30.56277 24.77602,-55.338787 55.33879,-55.338787 30.56277,0 55.33879,24.776017 55.33879,55.338787 z"
         sodipodi:type="arc"
         style="fill:#ffff00;stroke:#000000;stroke-width:2;stroke-linecap:round"
         sodipodi:ry="55.338791"
         sodipodi:rx="55.338791"
         id="path15610" />
      <path
         sodipodi:cx="296.6774"
         sodipodi:cy="-56.945683"
         transform="translate(278.2,271.73)"
         d="m 352.01619,-56.945683 c 0,30.562771 -24.77602,55.3387914 -55.33879,55.3387914 -30.56277,0 -55.33879,-24.7760204 -55.33879,-55.3387914 0,-30.56277 24.77602,-55.338787 55.33879,-55.338787 30.56277,0 55.33879,24.776017 55.33879,55.338787 z"
         sodipodi:type="arc"
         style="fill:#ffff00;stroke:#000000;stroke-width:2;stroke-linecap:round"
         sodipodi:ry="55.338791"
         sodipodi:rx="55.338791"
         id="path15612" />
      <path
         inkscape:connector-curvature="0"
         d="m 606.84,293.45 c 32.799,-19.489 50.587,-44.629 52.989,-90.154 8.5634,1.1987 20.342,6.2555 30.707,17.192 -5.3165,36.417 -22.452,70.825 -53.125,91.304 -9.8082,-1.3716 -23.264,-10.256 -30.571,-18.342 z"
         style="fill:#000000;stroke:#000000;stroke-width:1px"
         sodipodi:nodetypes="ccccc"
         id="path15614" />
      <g
         transform="matrix(1.2534,0,0,1.2534,76.995,-6.7842)"
         id="g15616">
        <path
           sodipodi:cx="120"
           sodipodi:cy="592.36218"
           transform="matrix(0.28982,0,0,0.28982,381.12,-8.7887)"
           d="m 177.14286,592.36218 c 0,31.55913 -25.58373,57.14286 -57.14286,57.14286 -31.559128,0 -57.142857,-25.58373 -57.142857,-57.14286 0,-31.55913 25.583729,-57.14285 57.142857,-57.14285 31.55913,0 57.14286,25.58372 57.14286,57.14285 z"
           sodipodi:type="arc"
           style="fill:#ffffff;stroke:#000000;stroke-width:3.45040011"
           sodipodi:ry="57.142857"
           sodipodi:rx="57.142857"
           id="path15618" />
        <path
           sodipodi:cx="120"
           sodipodi:cy="592.36218"
           transform="matrix(0.19394,0,0,0.22091,392.42,31.614)"
           d="m 177.14286,592.36218 c 0,31.55913 -25.58373,57.14286 -57.14286,57.14286 -31.559128,0 -57.142857,-25.58373 -57.142857,-57.14286 0,-31.55913 25.583729,-57.14285 57.142857,-57.14285 31.55913,0 57.14286,25.58372 57.14286,57.14285 z"
           sodipodi:type="arc"
           style="fill:#000000;stroke:#000000;stroke-width:0.1"
           sodipodi:ry="57.142857"
           sodipodi:rx="57.142857"
           id="path15620" />
        <path
           sodipodi:cx="120"
           sodipodi:cy="592.36218"
           transform="matrix(0.072619,0,0,0.072619,408.48,113.06)"
           d="m 177.14286,592.36218 c 0,31.55913 -25.58373,57.14286 -57.14286,57.14286 -31.559128,0 -57.142857,-25.58373 -57.142857,-57.14286 0,-31.55913 25.583729,-57.14285 57.142857,-57.14285 31.55913,0 57.14286,25.58372 57.14286,57.14285 z"
           sodipodi:type="arc"
           style="fill:#ffffff;stroke:#000000;stroke-width:0.1"
           sodipodi:ry="57.142857"
           sodipodi:rx="57.142857"
           id="path15622" />
        <path
           sodipodi:cx="120"
           sodipodi:cy="592.36218"
           transform="matrix(0.28982,0,0,0.28982,342.46,-8.7887)"
           d="m 177.14286,592.36218 c 0,31.55913 -25.58373,57.14286 -57.14286,57.14286 -31.559128,0 -57.142857,-25.58373 -57.142857,-57.14286 0,-31.55913 25.583729,-57.14285 57.142857,-57.14285 31.55913,0 57.14286,25.58372 57.14286,57.14285 z"
           sodipodi:type="arc"
           style="fill:#ffffff;stroke:#000000;stroke-width:3.45040011"
           sodipodi:ry="57.142857"
           sodipodi:rx="57.142857"
           id="path15624" />
        <path
           sodipodi:cx="120"
           sodipodi:cy="592.36218"
           transform="matrix(0.19394,0,0,0.22091,353.76,31.614)"
           d="m 177.14286,592.36218 c 0,31.55913 -25.58373,57.14286 -57.14286,57.14286 -31.559128,0 -57.142857,-25.58373 -57.142857,-57.14286 0,-31.55913 25.583729,-57.14285 57.142857,-57.14285 31.55913,0 57.14286,25.58372 57.14286,57.14285 z"
           sodipodi:type="arc"
           style="fill:#000000;stroke:#000000;stroke-width:0.1"
           sodipodi:ry="57.142857"
           sodipodi:rx="57.142857"
           id="path15626" />
        <path
           sodipodi:cx="120"
           sodipodi:cy="592.36218"
           transform="matrix(0.072619,0,0,0.072619,369.81,113.06)"
           d="m 177.14286,592.36218 c 0,31.55913 -25.58373,57.14286 -57.14286,57.14286 -31.559128,0 -57.142857,-25.58373 -57.142857,-57.14286 0,-31.55913 25.583729,-57.14285 57.142857,-57.14285 31.55913,0 57.14286,25.58372 57.14286,57.14285 z"
           sodipodi:type="arc"
           style="fill:#ffffff;stroke:#000000;stroke-width:0.1"
           sodipodi:ry="57.142857"
           sodipodi:rx="57.142857"
           id="path15628" />
      </g>
      <path
         inkscape:connector-curvature="0"
         inkscape:export-xdpi="1256.7957"
         sodipodi:nodetypes="cc"
         inkscape:export-ydpi="1256.7957"
         d="m 552.39,237.03 c 17.1,12.773 31.599,8.8955 45.313,0"
         style="fill:none;stroke:#000000;stroke-width:3.03390002px;stroke-linecap:round;stroke-linejoin:round"
         id="path15630" />
      <path
         inkscape:connector-curvature="0"
         d="m 571.67,158.33 c -2.1376,-11.136 -2.1137,-27.843 -13.482,-15.184"
         style="fill:none;stroke:#000000;stroke-width:4.29960012;stroke-linecap:round;stroke-linejoin:round"
         sodipodi:nodetypes="cc"
         id="path15632" />
      <path
         inkscape:connector-curvature="0"
         d="m 578.6,158.64 c 5.3526,-9.996 10.298,-25.954 17.388,-10.488"
         style="fill:none;stroke:#000000;stroke-width:4.29960012;stroke-linecap:round;stroke-linejoin:round"
         sodipodi:nodetypes="cc"
         id="path15634" />
      <path
         sodipodi:cx="296.6774"
         sodipodi:cy="-56.945683"
         transform="matrix(0.092783,0,0,0.092783,528.52,150.9)"
         d="m 352.01619,-56.945683 c 0,30.562771 -24.77602,55.3387914 -55.33879,55.3387914 -30.56277,0 -55.33879,-24.7760204 -55.33879,-55.3387914 0,-30.56277 24.77602,-55.338787 55.33879,-55.338787 30.56277,0 55.33879,24.776017 55.33879,55.338787 z"
         sodipodi:type="arc"
         style="fill:#ffff00;stroke:#000000;stroke-width:16.16699982;stroke-linecap:round"
         sodipodi:ry="55.338791"
         sodipodi:rx="55.338791"
         id="path15636" />
      <path
         sodipodi:cx="296.6774"
         sodipodi:cy="-56.945683"
         transform="matrix(0.092783,0,0,0.092783,571.95,157.43)"
         d="m 352.01619,-56.945683 c 0,30.562771 -24.77602,55.3387914 -55.33879,55.3387914 -30.56277,0 -55.33879,-24.7760204 -55.33879,-55.3387914 0,-30.56277 24.77602,-55.338787 55.33879,-55.338787 30.56277,0 55.33879,24.776017 55.33879,55.338787 z"
         sodipodi:type="arc"
         style="fill:#ffff00;stroke:#000000;stroke-width:16.16699982;stroke-linecap:round"
         sodipodi:ry="55.338791"
         sodipodi:rx="55.338791"
         id="path15638" />
      <path
         inkscape:connector-curvature="0"
         d="m 693.92,291.69 25.017,7.0436 -17.888,-19.81 -7.1288,12.767 z"
         style="fill:#000000"
         id="path15640" />
    </g>
    <flowRoot
       id="flowRoot16409"
       xml:space="preserve"
       style="font-size:40px;fill:#000000;font-family:Bitstream Vera Sans"
       transform="translate(-28.751,-189.93)"><flowRegion
         id="flowRegion16411"><rect
           id="rect16413"
           y="1450.1"
           width="31.816"
           x="2280.1001"
           height="41.536999" /></flowRegion><flowPara
         id="flowPara16415">t</flowPara></flowRoot>  </g>
  <metadata
     id="metadata34">
    <rdf:RDF>
      <cc:Work>
        <dc:format>image/svg+xml</dc:format>
        <dc:type
           rdf:resource="http://purl.org/dc/dcmitype/StillImage" />
        <cc:license
           rdf:resource="http://creativecommons.org/licenses/publicdomain/" />
        <dc:publisher>
          <cc:Agent
             rdf:about="http://openclipart.org/">
            <dc:title>Openclipart</dc:title>
          </cc:Agent>
        </dc:publisher>
        <dc:title>Projet logo jvne</dc:title>
      </cc:Work>
      <cc:License
         rdf:about="http://creativecommons.org/licenses/publicdomain/">
        <cc:permits
           rdf:resource="http://creativecommons.org/ns#Reproduction" />
        <cc:permits
           rdf:resource="http://creativecommons.org/ns#Distribution" />
        <cc:permits
           rdf:resource="http://creativecommons.org/ns#DerivativeWorks" />
      </cc:License>
    </rdf:RDF>
  </metadata>
</svg>
