<?xml version="1.0" encoding="UTF-8" standalone="no"?>
<svg
   xmlns:dc="http://purl.org/dc/elements/1.1/"
   xmlns:cc="http://creativecommons.org/ns#"
   xmlns:rdf="http://www.w3.org/1999/02/22-rdf-syntax-ns#"
   xmlns:svg="http://www.w3.org/2000/svg"
   xmlns="http://www.w3.org/2000/svg"
   xmlns:sodipodi="http://sodipodi.sourceforge.net/DTD/sodipodi-0.dtd"
   xmlns:inkscape="http://www.inkscape.org/namespaces/inkscape"
   version="1.1"
   id="Layer_1"
   x="0px"
   y="0px"
   width="16"
   height="16"
   viewBox="5 -10 16 21.6"
   enable-background="new 0 0 100 100"
   xml:space="preserve"
   inkscape:version="0.48.5 r10040"
   sodipodi:docname="icon_benachrichtigung_w.svg"><metadata
     id="metadata21"><rdf:RDF><cc:Work
         rdf:about=""><dc:format>image/svg+xml</dc:format><dc:type
           rdf:resource="http://purl.org/dc/dcmitype/StillImage" /><dc:title></dc:title></cc:Work></rdf:RDF></metadata><defs
     id="defs19" /><sodipodi:namedview
     pagecolor="#ffffff"
     bordercolor="#666666"
     borderopacity="1"
     objecttolerance="10"
     gridtolerance="10"
     guidetolerance="10"
     inkscape:pageopacity="0"
     inkscape:pageshadow="2"
     inkscape:window-width="1007"
     inkscape:window-height="847"
     id="namedview17"
     showgrid="false"
     inkscape:zoom="8.7879227"
     inkscape:cx="18.148669"
     inkscape:cy="13.596967"
     inkscape:window-x="0"
     inkscape:window-y="0"
     inkscape:window-maximized="0"
     inkscape:current-layer="Layer_1" /><g
     id="g3"
     transform="matrix(0.21385787,0,0,0.21385787,2.3738249,-11.093021)"
     style="fill:#000000"><path
       d="m 63.104,37.666 c 0,-2.429 -1.989,-4.418 -4.416,-4.418 H 41.673 c -2.428,0 -5.825,-1.407 -7.545,-3.125 L 10.1,6.095 C 8.38,4.373 6.975,4.958 6.975,7.388 v 83.104 c 0,2.437 1.405,3.015 3.125,1.293 L 34.128,67.758 c 1.72,-1.719 5.117,-3.124 7.545,-3.124 h 17.016 c 2.427,0 4.416,-1.99 4.416,-4.42 V 37.666 z"
       id="path5"
       inkscape:connector-curvature="0"
       style="fill:#000000" /><path
       d="m 4.772,57.563 c 0,0.971 -0.797,1.763 -1.77,1.763 H 1.875 c -0.972,0 -1.766,-0.792 -1.766,-1.763 V 40.318 c 0,-0.971 0.794,-1.768 1.766,-1.768 h 1.128 c 0.973,0 1.77,0.796 1.77,1.768 v 17.245 z"
       id="path7"
       inkscape:connector-curvature="0"
       style="fill:#000000" /><path
       d="m 100.008,57.563 c 0,0.971 -0.796,1.763 -1.769,1.763 h -1.127 c -0.971,0 -1.767,-0.792 -1.767,-1.763 V 40.318 c 0,-0.971 0.796,-1.768 1.767,-1.768 h 1.127 c 0.973,0 1.769,0.796 1.769,1.768 v 17.245 z"
       id="path9"
       inkscape:connector-curvature="0"
       style="fill:#000000" /><path
       d="m 93.169,36.492 c 0,-2.429 -1.994,-4.419 -4.424,-4.419 H 70.474 c -2.429,0 -4.415,1.99 -4.415,4.419 v 24.903 c 0,2.429 0.047,4.42 0.102,4.42 0.061,0 -0.088,0.891 -0.326,1.982 -0.239,1.089 0.092,2.104 0.73,2.239 0.644,0.143 0.739,2.198 0.226,4.573 l -2.889,13.263 c -0.518,2.378 -1.542,4.501 -2.273,4.729 -0.734,0.224 -1.436,0.843 -1.551,1.37 -0.109,0.531 1.782,0.98 4.215,0.994 l 1.875,0.017 C 68.605,95 71.224,93.128 72.007,90.828 L 76.76,76.76 c 0.782,-2.311 2.004,-4.063 2.719,-3.906 0.718,0.156 1.66,-1.368 2.1,-3.379 0.438,-2.018 2.786,-3.66 5.216,-3.66 h 1.952 c 2.43,0 4.424,-1.991 4.424,-4.42 V 36.492 z"
       id="path11"
       inkscape:connector-curvature="0"
       style="fill:#000000" /></g></svg>